<?xml version="1.0" standalone="no"?>
<!DOCTYPE svg PUBLIC "-//W3C//DTD SVG 20010904//EN"
 "http://www.w3.org/TR/2001/REC-SVG-20010904/DTD/svg10.dtd">
<svg version="1.0" xmlns="http://www.w3.org/2000/svg"
 width="1477.000000pt" height="1467.000000pt" viewBox="0 0 1477.000000 1467.000000"
 preserveAspectRatio="xMidYMid meet">

<g transform="translate(0.000000,1467.000000) scale(0.100000,-0.100000)"
fill="#000000" stroke="none">
<path d="M13795 14661 c-28 -12 -44 -33 -51 -68 -5 -25 10 -53 113 -209 570
-860 832 -1498 712 -1736 -64 -127 -249 -307 -808 -787 l-284 -244 -191 7
c-209 8 -367 25 -366 41 1 6 36 55 79 110 335 428 553 827 627 1150 28 120 26
299 -5 390 -31 93 -65 149 -131 215 -98 96 -226 156 -420 197 -120 25 -380 25
-469 0 -203 -56 -334 -189 -385 -389 -77 -302 44 -798 345 -1417 54 -112 99
-205 99 -207 0 -8 -211 71 -285 106 -117 56 -249 146 -340 232 l-80 76 -6 508
c-7 553 -7 550 -69 729 -109 311 -376 602 -702 766 -93 47 -120 49 -159 10
-58 -58 -34 -103 89 -165 275 -138 502 -380 603 -640 63 -163 69 -216 69 -666
0 -949 66 -1549 222 -2030 36 -112 104 -268 142 -328 l27 -43 -49 -82 c-151
-251 -219 -471 -296 -957 -142 -895 -244 -2569 -272 -4480 l-6 -425 -33 -110
c-150 -493 -267 -976 -381 -1570 -18 -99 -34 -196 -34 -216 0 -47 33 -79 81
-79 63 0 74 23 114 235 88 467 208 981 315 1360 39 134 58 187 77 207 21 22
27 41 33 105 6 60 22 118 73 253 180 480 358 771 518 848 90 43 271 25 424
-43 148 -65 357 -230 511 -402 96 -107 251 -311 301 -395 l31 -53 76 -1000
c42 -550 79 -1036 82 -1080 9 -113 29 -144 92 -145 41 0 82 38 82 76 0 102
-234 3075 -331 4199 -178 2073 -244 2595 -369 2910 -104 262 -212 389 -467
545 -75 47 -169 110 -208 141 -70 56 -155 141 -155 157 0 4 30 46 67 92 218
278 545 608 1004 1011 l86 76 94 7 c155 11 292 27 327 38 64 19 80 110 25 145
-26 17 -50 18 -155 5 -38 -5 -68 -8 -68 -6 0 1 91 80 201 175 537 461 721 651
778 803 100 267 -71 771 -505 1493 -112 186 -332 520 -355 540 -21 17 -61 23
-84 14z m-730 -1106 c330 -69 460 -256 399 -575 -42 -223 -203 -552 -426 -870
-94 -133 -220 -299 -229 -300 -7 0 -177 350 -227 470 -152 364 -236 716 -218
914 21 218 108 330 290 372 79 18 302 12 411 -11z m-948 -1784 c258 -172 597
-272 1080 -318 l82 -8 -162 -147 c-300 -271 -593 -573 -765 -786 l-76 -94 -19
38 c-99 192 -186 519 -236 889 -21 146 -51 452 -51 508 l0 28 43 -34 c23 -19
70 -53 104 -76z m338 -1812 c33 -25 121 -83 195 -129 183 -113 276 -206 347
-345 147 -287 199 -612 333 -2065 68 -743 222 -2591 216 -2597 -1 -1 -36 39
-77 90 -98 122 -273 297 -380 379 -216 168 -403 245 -616 255 -142 7 -217 -14
-314 -86 -141 -104 -252 -271 -422 -631 l-16 -35 4 40 c2 22 7 200 10 395 25
1585 132 3208 266 4020 62 378 114 565 211 752 l61 118 61 -58 c34 -32 88 -78
121 -103z"/>
<path d="M29 14521 c-37 -38 -39 -82 -4 -116 13 -14 31 -25 40 -25 8 0 44 -13
79 -29 166 -75 267 -242 319 -526 20 -109 22 -152 22 -465 -1 -225 -7 -423
-18 -570 -33 -439 -39 -621 -27 -870 33 -701 107 -923 600 -1795 436 -771 548
-972 613 -1102 l71 -142 -41 -173 c-151 -626 -217 -1232 -333 -3068 -70 -1104
-104 -1528 -156 -1940 -73 -586 -170 -942 -294 -1085 -47 -54 -51 -91 -16
-131 89 -105 233 76 331 417 135 467 200 1051 305 2739 88 1408 144 2028 235
2576 24 151 74 396 80 403 5 4 20 -33 100 -241 391 -1017 767 -2548 1065
-4338 58 -348 113 -707 145 -945 20 -145 26 -162 67 -179 39 -17 76 -7 101 26
23 31 23 36 -44 483 -332 2223 -806 4162 -1299 5319 l-64 149 23 66 c46 134
152 393 220 537 214 457 458 837 826 1288 l97 118 82 -6 c213 -16 496 -26 518
-17 31 12 47 31 54 68 5 24 0 37 -23 61 l-28 31 -210 11 c-115 5 -222 10 -237
10 -26 0 -25 3 53 103 112 143 258 363 322 487 121 231 185 501 218 910 14
186 14 711 -1 950 -24 406 -81 942 -103 990 -16 34 -63 55 -95 44 -14 -5 -34
-21 -45 -36 l-20 -27 22 -183 c48 -407 68 -657 80 -1029 19 -571 -24 -1056
-120 -1343 -67 -202 -232 -466 -483 -775 l-59 -73 -96 6 c-226 16 -788 80
-893 102 -26 5 -25 7 96 187 328 487 488 870 490 1172 1 279 -137 458 -414
534 -156 44 -399 50 -574 16 -158 -31 -262 -83 -350 -174 -166 -175 -180 -445
-41 -816 79 -209 212 -458 386 -718 80 -120 94 -146 76 -142 -12 2 -74 16
-137 30 -450 99 -770 247 -863 397 -51 82 -59 137 -64 433 -4 219 -1 330 18
590 27 377 33 940 11 1085 -19 129 -60 283 -97 371 -79 187 -222 326 -394 379
-82 26 -87 25 -122 -9z m2072 -1597 c193 -44 291 -132 320 -290 36 -192 -70
-528 -282 -891 -69 -119 -271 -423 -280 -423 -27 0 -300 441 -394 635 -130
269 -169 404 -170 585 0 115 2 130 26 181 58 123 174 191 374 218 97 14 317 5
406 -15z m-1218 -1614 c363 -171 1020 -307 1842 -381 72 -6 131 -13 133 -14 2
-2 -43 -61 -100 -133 -391 -492 -677 -975 -886 -1500 l-69 -172 -81 148 c-45
82 -176 317 -293 523 -451 796 -577 1033 -662 1249 -42 107 -97 294 -112 382
l-6 38 65 -46 c36 -25 112 -67 169 -94z"/>
<path d="M4030 13822 c-32 -32 -39 -74 -17 -103 7 -8 55 -36 107 -62 200 -98
320 -239 371 -435 25 -96 26 -268 4 -497 -78 -800 -94 -1039 -102 -1450 -17
-960 116 -1685 400 -2180 l56 -96 -118 -162 c-353 -486 -563 -853 -655 -1146
-152 -480 -174 -1429 -65 -2741 55 -669 157 -1540 261 -2228 33 -225 43 -254
92 -266 33 -8 71 8 91 38 16 24 14 45 -34 378 -91 633 -172 1318 -221 1858
l-21 235 21 105 c55 270 171 511 339 705 200 231 494 390 843 456 159 30 474
38 608 15 362 -63 620 -257 789 -593 66 -131 89 -203 121 -376 149 -819 180
-1675 79 -2237 -35 -193 -35 -207 -9 -235 17 -18 34 -25 60 -25 72 0 91 47
129 315 37 261 45 401 45 760 -1 368 -13 557 -58 945 -14 113 -30 255 -36 315
-7 61 -28 173 -47 250 -19 77 -45 194 -59 260 -125 595 -293 1106 -495 1505
-188 371 -359 604 -839 1145 -250 281 -413 470 -528 613 -79 97 -83 104 -69
125 70 106 598 754 1032 1267 887 1049 1152 1378 1356 1682 139 208 238 438
290 678 30 139 37 395 15 528 -28 164 -103 360 -161 418 -45 45 -125 22 -141
-40 -4 -17 10 -55 45 -127 82 -167 95 -228 95 -459 1 -169 -2 -209 -22 -298
-29 -129 -81 -282 -134 -389 -104 -214 -380 -583 -902 -1208 l-168 -200 -51
-8 c-29 -5 -187 -9 -352 -10 -298 -1 -446 10 -608 45 l-52 11 125 42 c230 78
414 171 575 293 640 480 631 1218 -17 1406 -111 32 -279 50 -386 42 -415 -34
-638 -293 -667 -779 -14 -225 41 -602 129 -889 7 -27 12 -48 10 -48 -16 0
-188 88 -242 124 -86 57 -187 158 -232 233 l-35 58 1 180 c2 193 17 406 65
905 52 538 53 673 3 831 -67 218 -221 396 -430 499 -114 57 -145 61 -184 22z
m1887 -1332 c175 -42 297 -129 360 -257 34 -68 38 -85 41 -172 5 -114 -12
-191 -65 -296 -146 -292 -464 -531 -890 -669 -62 -20 -116 -36 -121 -36 -4 0
-22 57 -40 128 -95 380 -115 715 -56 937 47 178 159 310 305 360 113 39 318
41 466 5z m-1172 -1535 c195 -130 456 -216 790 -261 96 -13 202 -18 406 -18
l276 -1 -115 -135 c-442 -522 -1060 -1277 -1118 -1365 -9 -14 -19 -25 -23 -25
-10 0 -83 141 -129 250 -113 269 -195 614 -237 995 -20 184 -35 440 -35 594
l0 123 63 -58 c34 -33 89 -77 122 -99z m346 -2270 c68 -82 195 -231 283 -330
398 -451 455 -517 546 -631 316 -395 518 -767 685 -1264 39 -114 125 -403 125
-417 0 -3 -35 27 -77 65 -171 153 -350 244 -588 297 -96 22 -421 31 -556 16
-304 -35 -585 -133 -810 -282 -122 -82 -324 -282 -402 -400 -31 -47 -79 -127
-106 -178 l-48 -93 -7 119 c-55 963 -17 1695 109 2079 67 205 222 488 453 829
156 231 252 359 261 349 4 -5 63 -76 132 -159z"/>
<path d="M10523 12785 c-41 -17 -60 -64 -43 -105 10 -24 33 -41 104 -77 180
-93 323 -275 377 -480 32 -121 35 -298 10 -538 -71 -689 -230 -1176 -514
-1575 -110 -156 -76 -143 -338 -130 -728 34 -1171 100 -1358 201 -137 74 -375
252 -468 351 l-31 33 -17 230 c-41 575 -123 1069 -225 1360 -35 100 -51 122
-96 131 -39 7 -94 -35 -94 -72 0 -13 18 -77 39 -142 126 -378 206 -1001 231
-1792 5 -179 12 -361 15 -405 30 -413 207 -945 497 -1494 46 -86 82 -160 80
-166 -2 -5 -19 -50 -38 -98 -334 -850 -455 -2823 -323 -5282 6 -110 15 -213
21 -228 13 -34 59 -60 92 -51 13 3 34 16 47 30 21 23 22 28 15 146 -114 2098
-55 3853 165 4838 33 151 104 401 123 437 12 23 16 17 99 -121 47 -80 189
-311 315 -513 395 -635 502 -821 643 -1106 146 -297 227 -523 263 -737 75
-452 90 -1726 36 -3010 -6 -135 -13 -260 -16 -277 l-5 -33 -157 0 c-169 0
-196 -6 -221 -51 -17 -30 -9 -71 19 -99 19 -19 34 -20 270 -20 l249 0 5 33 c3
17 10 129 16 247 68 1409 53 2802 -35 3269 -42 218 -134 473 -273 757 -140
284 -235 446 -637 1094 -269 432 -475 777 -475 794 0 5 23 51 51 100 176 310
361 505 839 887 317 253 457 376 587 513 45 47 86 86 91 86 5 0 15 12 23 28 7
15 39 61 69 102 338 453 524 1006 596 1770 31 331 5 530 -95 735 -80 163 -220
310 -372 390 -93 49 -119 55 -156 40z m-1935 -2797 c121 -77 193 -108 325
-142 230 -60 681 -112 1130 -132 l158 -7 -43 -44 c-72 -75 -229 -207 -518
-438 -409 -326 -641 -566 -797 -824 -26 -44 -52 -80 -56 -81 -12 0 -209 411
-275 575 -101 252 -163 466 -203 692 -18 103 -38 404 -39 575 l0 57 105 -82
c58 -45 154 -112 213 -149z"/>
<path d="M9207 11845 c-338 -64 -620 -279 -767 -586 -74 -154 -85 -276 -39
-426 79 -258 380 -550 792 -768 93 -49 110 -55 125 -44 128 99 300 269 419
414 194 238 313 515 313 730 0 308 -215 593 -506 670 -86 23 -243 28 -337 10z
m276 -170 c92 -19 159 -58 238 -137 50 -49 79 -90 110 -152 38 -77 42 -93 47
-180 3 -56 0 -121 -8 -158 -26 -135 -120 -318 -251 -488 -71 -92 -319 -350
-337 -350 -15 0 -214 123 -303 186 -117 84 -280 243 -338 329 -72 108 -94 172
-95 275 -1 80 1 90 42 174 55 115 113 196 198 275 199 187 469 274 697 226z"/>
<path d="M3562 1390 c-98 -26 -186 -74 -247 -136 -64 -64 -97 -119 -125 -212
-19 -64 -22 -89 -18 -190 4 -88 11 -131 27 -174 51 -133 164 -236 305 -281
134 -42 476 -23 476 27 0 13 -22 129 -25 134 -1 1 -31 -5 -65 -14 -89 -23
-257 -15 -322 14 -70 31 -131 92 -164 165 -25 55 -28 73 -28 162 1 168 54 264
181 327 59 29 78 33 167 36 70 3 119 -1 161 -12 33 -8 63 -12 66 -8 7 8 39
114 39 130 0 44 -300 67 -428 32z"/>
<path d="M4421 1394 c-168 -45 -294 -171 -347 -349 -27 -90 -25 -239 5 -335
66 -215 237 -340 466 -340 252 0 438 143 496 380 17 71 17 219 0 290 -45 184
-181 321 -359 359 -72 15 -195 13 -261 -5z m215 -149 c145 -43 237 -232 206
-428 -14 -93 -40 -154 -88 -207 -47 -52 -97 -78 -167 -86 -207 -24 -355 178
-319 436 21 144 90 245 194 281 65 22 109 24 174 4z"/>
<path d="M6503 1395 c-81 -22 -126 -49 -175 -103 -49 -55 -68 -105 -68 -179 0
-120 106 -229 275 -283 64 -20 148 -66 175 -95 20 -21 25 -37 25 -75 0 -49
-23 -87 -68 -112 -62 -33 -226 -25 -327 16 l-58 24 -16 -63 c-8 -34 -18 -69
-22 -78 -7 -20 33 -38 134 -61 128 -29 306 -15 395 30 170 87 219 294 102 431
-37 43 -116 89 -220 128 -152 57 -195 93 -195 160 0 46 20 74 72 101 56 29
205 19 299 -20 14 -6 22 7 42 69 19 55 23 77 14 80 -7 3 -32 12 -57 21 -64 23
-259 28 -327 9z"/>
<path d="M12741 1394 c-168 -45 -294 -171 -347 -349 -27 -90 -25 -239 5 -335
66 -215 237 -340 466 -340 252 0 438 143 496 380 17 71 17 219 0 290 -45 184
-181 321 -359 359 -72 15 -195 13 -261 -5z m215 -149 c145 -43 237 -232 206
-428 -14 -93 -40 -154 -88 -207 -47 -52 -97 -78 -167 -86 -207 -24 -355 178
-319 436 21 144 90 245 194 281 65 22 109 24 174 4z"/>
<path d="M90 1320 l0 -80 150 0 150 0 0 -430 0 -430 100 0 100 0 0 430 0 429
153 3 152 3 3 78 3 77 -406 0 -405 0 0 -80z"/>
<path d="M1020 890 l0 -510 100 0 100 0 0 225 0 225 220 0 220 0 0 -225 0
-225 100 0 100 0 0 510 0 510 -100 0 -100 0 0 -205 0 -205 -220 0 -220 0 0
205 0 205 -100 0 -100 0 0 -510z"/>
<path d="M2080 890 l0 -510 325 0 325 0 0 75 0 75 -225 0 -225 0 0 150 0 150
200 0 200 0 0 75 0 75 -200 0 -200 0 0 135 0 135 210 0 210 0 0 75 0 75 -310
0 -310 0 0 -510z"/>
<path d="M5220 890 l0 -510 90 0 91 0 -3 393 -3 394 59 -111 c32 -61 102 -183
156 -271 53 -88 130 -215 171 -282 l74 -122 103 -1 102 0 0 510 0 510 -91 0
-91 0 4 -374 3 -374 -61 119 c-34 66 -133 234 -220 374 l-159 255 -112 0 -113
0 0 -510z"/>
<path d="M7010 1320 l0 -80 150 0 150 0 0 -430 0 -430 100 0 100 0 0 430 0
429 153 3 152 3 3 78 3 77 -406 0 -405 0 0 -80z"/>
<path d="M7930 890 l0 -510 325 0 325 0 0 75 0 75 -225 0 -225 0 0 150 0 150
200 0 200 0 0 75 0 75 -200 0 -200 0 0 135 0 135 210 0 210 0 0 75 0 75 -310
0 -310 0 0 -510z"/>
<path d="M8750 890 l0 -510 315 0 315 0 0 80 0 80 -215 0 -215 0 0 430 0 430
-100 0 -100 0 0 -510z"/>
<path d="M9530 890 l0 -510 315 0 315 0 0 80 0 80 -215 0 -215 0 0 430 0 430
-100 0 -100 0 0 -510z"/>
<path d="M10407 897 c-92 -276 -167 -506 -167 -510 0 -4 45 -7 100 -7 l99 0
11 38 c5 20 25 84 44 142 l33 105 169 3 170 2 45 -142 44 -143 109 -3 c85 -2
107 0 104 10 -3 7 -81 237 -174 511 l-169 497 -125 0 -125 0 -168 -503z m364
99 c32 -99 57 -181 55 -183 -2 -2 -62 -2 -133 -1 l-130 3 53 170 c30 94 59
190 65 215 l12 45 10 -35 c5 -19 36 -116 68 -214z"/>
<path d="M11090 1320 l0 -80 150 0 150 0 0 -430 0 -430 100 0 100 0 0 430 0
429 153 3 152 3 3 78 3 77 -406 0 -405 0 0 -80z"/>
<path d="M12010 890 l0 -510 100 0 100 0 0 510 0 510 -100 0 -100 0 0 -510z"/>
<path d="M13540 890 l0 -510 90 0 91 0 -3 393 -3 394 59 -111 c32 -61 102
-183 156 -271 53 -88 130 -215 171 -282 l74 -122 103 -1 102 0 0 510 0 510
-91 0 -91 0 4 -374 3 -374 -61 119 c-34 66 -133 234 -220 374 l-159 255 -112
0 -113 0 0 -510z"/>
</g>
</svg>
