<svg
    xmlns="http://www.w3.org/2000/svg"
    viewBox="0 0 256 262"
    id="vector">
    <path
        id="path"
        d="M 255.878 133.451 C 255.878 122.717 255.007 114.884 253.122 106.761 L 130.55 106.761 L 130.55 155.209 L 202.497 155.209 C 201.047 167.249 193.214 185.381 175.807 197.565 L 175.563 199.187 L 214.318 229.21 L 217.003 229.478 C 241.662 206.704 255.878 173.196 255.878 133.451"
        fill="#4285f4"/>
    <path
        id="path_1"
        d="M 130.55 261.1 C 165.798 261.1 195.389 249.495 217.003 229.478 L 175.807 197.565 C 164.783 205.253 149.987 210.62 130.55 210.62 C 96.027 210.62 66.726 187.847 56.281 156.37 L 54.75 156.5 L 14.452 187.687 L 13.925 189.152 C 35.393 231.798 79.49 261.1 130.55 261.1"
        fill="#34a853"/>
    <path
        id="path_2"
        d="M 56.281 156.37 C 53.525 148.247 51.93 139.543 51.93 130.55 C 51.93 121.556 53.525 112.853 56.136 104.73 L 56.063 103 L 15.26 71.312 L 13.925 71.947 C 5.077 89.644 0 109.517 0 130.55 C 0 151.583 5.077 171.455 13.925 189.152 L 56.281 156.37"
        fill="#fbbc05"/>
    <path
        id="path_3"
        d="M 130.55 50.479 C 155.064 50.479 171.6 61.068 181.029 69.917 L 217.873 33.943 C 195.245 12.91 165.798 0 130.55 0 C 79.49 0 35.393 29.301 13.925 71.947 L 56.136 104.73 C 66.726 73.253 96.027 50.479 130.55 50.479"
        fill="#eb4335"/>
</svg>
